<svg width="18" height="18" viewBox="0 0 18 18" fill="none" xmlns="http://www.w3.org/2000/svg">
<path d="M8.81265 2.25C9.09743 2.25 9.33285 2.46151 9.37013 2.73606L9.3753 2.81239L9.3762 8.25H14.816C15.1267 8.25 15.3785 8.50185 15.3785 8.8125C15.3785 9.09727 15.1669 9.33263 14.8924 9.3699L14.816 9.375H9.3762L9.3777 14.8118C9.37778 15.1225 9.126 15.3745 8.81535 15.3745C8.53058 15.3745 8.29515 15.163 8.25788 14.8884L8.2527 14.812L8.2512 9.375H2.81445C2.50379 9.375 2.25195 9.12315 2.25195 8.8125C2.25195 8.52773 2.46357 8.29237 2.73813 8.2551L2.81445 8.25H8.2512L8.2503 2.81261C8.25023 2.50195 8.502 2.25 8.81265 2.25Z" fill="#20335B"/>
</svg>
