<svg width="18" height="18" viewBox="0 0 18 18" fill="none" xmlns="http://www.w3.org/2000/svg">
<path d="M7.6875 8.25C7.37684 8.25 7.125 8.50185 7.125 8.8125C7.125 9.12315 7.37684 9.375 7.6875 9.375H10.3125C10.6231 9.375 10.875 9.12315 10.875 8.8125C10.875 8.50185 10.6231 8.25 10.3125 8.25H7.6875ZM2.25 3.9375C2.25 3.00552 3.00552 2.25 3.9375 2.25H14.0625C14.9944 2.25 15.75 3.00552 15.75 3.9375V5.0625C15.75 5.64757 15.4522 6.16311 15 6.46583V12.9375C15 14.4908 13.7408 15.75 12.1875 15.75H5.8125C4.2592 15.75 3 14.4908 3 12.9375V6.46583C2.54776 6.16311 2.25 5.64757 2.25 5.0625V3.9375ZM4.125 6.75V12.9375C4.125 13.8694 4.88052 14.625 5.8125 14.625H12.1875C13.1194 14.625 13.875 13.8694 13.875 12.9375V6.75H4.125ZM3.9375 3.375C3.62684 3.375 3.375 3.62684 3.375 3.9375V5.0625C3.375 5.37316 3.62684 5.625 3.9375 5.625H14.0625C14.3731 5.625 14.625 5.37316 14.625 5.0625V3.9375C14.625 3.62684 14.3731 3.375 14.0625 3.375H3.9375Z" fill="#20335B"/>
</svg>
