<svg width="18" height="18" viewBox="0 0 18 18" fill="none" xmlns="http://www.w3.org/2000/svg">
<path d="M13.3125 2.25C14.6587 2.25 15.75 3.3413 15.75 4.6875V13.3125C15.75 14.6587 14.6587 15.75 13.3125 15.75H4.6875C3.3413 15.75 2.25 14.6587 2.25 13.3125V4.6875C2.25 3.3413 3.3413 2.25 4.6875 2.25H13.3125ZM14.625 6.375H3.375V13.3125C3.375 14.0374 3.96263 14.625 4.6875 14.625H13.3125C14.0374 14.625 14.625 14.0374 14.625 13.3125V6.375ZM5.8125 10.875C6.33027 10.875 6.75 11.2947 6.75 11.8125C6.75 12.3303 6.33027 12.75 5.8125 12.75C5.29473 12.75 4.875 12.3303 4.875 11.8125C4.875 11.2947 5.29473 10.875 5.8125 10.875ZM9 10.875C9.5178 10.875 9.9375 11.2947 9.9375 11.8125C9.9375 12.3303 9.5178 12.75 9 12.75C8.4822 12.75 8.0625 12.3303 8.0625 11.8125C8.0625 11.2947 8.4822 10.875 9 10.875ZM5.8125 7.875C6.33027 7.875 6.75 8.2947 6.75 8.8125C6.75 9.3303 6.33027 9.75 5.8125 9.75C5.29473 9.75 4.875 9.3303 4.875 8.8125C4.875 8.2947 5.29473 7.875 5.8125 7.875ZM9 7.875C9.5178 7.875 9.9375 8.2947 9.9375 8.8125C9.9375 9.3303 9.5178 9.75 9 9.75C8.4822 9.75 8.0625 9.3303 8.0625 8.8125C8.0625 8.2947 8.4822 7.875 9 7.875ZM12.1875 7.875C12.7053 7.875 13.125 8.2947 13.125 8.8125C13.125 9.3303 12.7053 9.75 12.1875 9.75C11.6697 9.75 11.25 9.3303 11.25 8.8125C11.25 8.2947 11.6697 7.875 12.1875 7.875ZM13.3125 3.375H4.6875C3.96263 3.375 3.375 3.96263 3.375 4.6875V5.25H14.625V4.6875C14.625 3.96263 14.0374 3.375 13.3125 3.375Z" fill="#20335B"/>
</svg>
