<svg width="18" height="18" viewBox="0 0 18 18" fill="none" xmlns="http://www.w3.org/2000/svg">
<path d="M9 1.5C13.1421 1.5 16.5 4.85786 16.5 9C16.5 13.1421 13.1421 16.5 9 16.5C7.78627 16.5 6.61337 16.2109 5.55964 15.666L2.69028 16.4665C2.19159 16.6057 1.67444 16.3144 1.53518 15.8157C1.4891 15.6507 1.48912 15.4762 1.53521 15.3113L2.33596 12.4441C1.78978 11.3895 1.5 10.2152 1.5 9C1.5 4.85786 4.85786 1.5 9 1.5ZM9 2.625C5.47919 2.625 2.625 5.47919 2.625 9C2.625 10.1022 2.90458 11.1626 3.42977 12.1031L3.54276 12.3054L2.70822 15.2935L5.69816 14.4594L5.90032 14.5721C6.84004 15.0961 7.89915 15.375 9 15.375C12.5208 15.375 15.375 12.5208 15.375 9C15.375 5.47919 12.5208 2.625 9 2.625ZM6.5625 9.75H9.93622C10.2469 9.75 10.4987 10.0019 10.4987 10.3125C10.4987 10.5973 10.2871 10.8326 10.0125 10.8699L9.93622 10.875H6.5625C6.25184 10.875 6 10.6231 6 10.3125C6 10.0277 6.21161 9.79237 6.48617 9.7551L6.5625 9.75H9.93622H6.5625ZM6.5625 7.125H11.4409C11.7515 7.125 12.0034 7.37684 12.0034 7.6875C12.0034 7.97227 11.7917 8.20763 11.5172 8.2449L11.4409 8.25H6.5625C6.25184 8.25 6 7.99815 6 7.6875C6 7.40273 6.21161 7.16738 6.48617 7.13014L6.5625 7.125H11.4409H6.5625Z" fill="white"/>
</svg>
