<svg width="14" height="14" viewBox="0 0 14 14" fill="none" xmlns="http://www.w3.org/2000/svg">
<path d="M10.6457 11.9589C10.8873 11.9589 11.0833 12.1547 11.0833 12.3963C11.0833 12.6379 10.8876 12.8339 10.646 12.8339L3.06263 12.8362C2.821 12.8362 2.625 12.6404 2.625 12.3988C2.625 12.1572 2.82075 11.9612 3.06237 11.9612L10.6457 11.9589ZM6.79478 1.17416L6.85417 1.17017C7.07566 1.17017 7.25871 1.33475 7.2877 1.5483L7.29167 1.60767L7.29108 9.59061L9.46213 7.42037C9.61748 7.26509 9.86055 7.25097 10.0318 7.37808L10.0809 7.42043C10.2362 7.57577 10.2503 7.81885 10.1232 7.99011L10.0808 8.03917L7.16549 10.9539C7.01027 11.1091 6.76737 11.1233 6.5961 10.9963L6.54704 10.954L3.62835 8.03935C3.45738 7.86861 3.45719 7.59158 3.62793 7.42061C3.78314 7.26521 4.02619 7.25091 4.19755 7.37791L4.24665 7.4202L6.41608 9.58652L6.41667 1.60767C6.41667 1.38617 6.58128 1.20313 6.79478 1.17416L6.85417 1.17017L6.79478 1.17416Z" fill="#20335B"/>
</svg>
