<svg width="15" height="18" viewBox="0 0 15 18" fill="none" xmlns="http://www.w3.org/2000/svg">
<path d="M1.05078 0C0.636571 0 0.300781 0.33579 0.300781 0.75C0.300781 1.16421 0.636571 1.5 1.05078 1.5H13.5508C13.965 1.5 14.3008 1.16421 14.3008 0.75C14.3008 0.33579 13.965 0 13.5508 0H1.05078ZM4.5224 11.2188C4.78867 10.9526 5.20533 10.9284 5.49898 11.1462L5.58308 11.2188L6.80278 12.44V9.3691L6.80078 9.3437V5.56L5.58108 6.78115L5.49698 6.85377C5.20338 7.0716 4.78672 7.0474 4.52045 6.78115C4.25418 6.51488 4.22998 6.09822 4.44783 5.80461L4.52045 5.72049L6.88788 3.35039C7.01358 3.14201 7.26368 3 7.55168 3C7.80378 3 8.02678 3.10886 8.16278 3.27578L8.21558 3.35073L10.5828 5.72049L10.6554 5.80461C10.849 6.0656 10.8514 6.42381 10.6626 6.6872L10.5828 6.78115L10.4987 6.85377C10.2377 7.0474 9.87948 7.0498 9.61608 6.86094L9.52208 6.78115L8.30078 5.56V8.6308L8.30278 8.6562V12.44L9.52408 11.2188C9.79028 10.9526 10.207 10.9284 10.5006 11.1462L10.5847 11.2188C10.851 11.4851 10.8752 11.9018 10.6573 12.1954L10.5847 12.2795L8.21748 14.6493C8.09188 14.8578 7.84178 15 7.55368 15C7.26568 15 7.01548 14.858 6.88978 14.6496L4.5224 12.2795C4.22951 11.9866 4.22951 11.5117 4.5224 11.2188ZM0.300781 17.25C0.300781 16.8358 0.636571 16.5 1.05078 16.5H13.5508C13.965 16.5 14.3008 16.8358 14.3008 17.25C14.3008 17.6642 13.965 18 13.5508 18H1.05078C0.636571 18 0.300781 17.6642 0.300781 17.25Z" fill="#20335B"/>
</svg>
