<svg width="14" height="14" viewBox="0 0 14 14" fill="none" xmlns="http://www.w3.org/2000/svg">
<path d="M4.33426 1.93928C4.42548 1.62002 4.71729 1.3999 5.04932 1.3999H8.72367C9.23131 1.3999 9.58971 1.8972 9.4292 2.37875L9.42738 2.38398L8.54447 4.8999H10.3391C11.0015 4.8999 11.3242 5.70042 10.8756 6.16786L10.8732 6.17044L10.7071 6.33989C10.5253 6.31355 10.3393 6.2999 10.1502 6.2999C10.0136 6.2999 9.87874 6.30701 9.74588 6.32088L10.3713 5.68241C10.3798 5.67329 10.3821 5.66627 10.383 5.66038C10.3842 5.65243 10.3834 5.64119 10.3784 5.62915C10.3734 5.61712 10.3662 5.60946 10.3608 5.60562C10.3571 5.60297 10.3516 5.5999 10.3391 5.5999H8.05069C7.93722 5.5999 7.83075 5.54488 7.76516 5.45231C7.6995 5.35973 7.68284 5.24108 7.72043 5.134L8.76553 2.15606C8.77386 2.1282 8.753 2.0999 8.72367 2.0999H5.04932C5.02982 2.0999 5.01269 2.11283 5.00732 2.13158L3.4326 7.64313C3.42463 7.67099 3.44558 7.69878 3.4746 7.69878H4.80997C4.91775 7.69878 5.01951 7.74848 5.08584 7.83339C5.15217 7.91837 5.17566 8.02911 5.14952 8.13369L4.22199 11.8438C4.21925 11.8548 4.21946 11.8613 4.21976 11.8642C4.22007 11.8673 4.22079 11.8697 4.2219 11.872C4.22439 11.8772 4.23091 11.8858 4.24324 11.8926C4.25557 11.8994 4.26628 11.9004 4.27205 11.8997C4.27461 11.8994 4.27701 11.8988 4.27977 11.8974C4.28243 11.8961 4.28805 11.8928 4.29589 11.8846L4.29839 11.8821L6.31374 9.82461C6.30477 9.93185 6.3002 10.0404 6.3002 10.1499C6.3002 10.3664 6.31807 10.5787 6.35241 10.7855L4.79956 12.3707C4.2715 12.9185 3.35816 12.4129 3.5429 11.674L4.3617 8.39878H3.4746C2.98052 8.39878 2.6238 7.92586 2.75953 7.45084L4.33426 1.93928ZM13.3002 10.1499C13.3002 11.8896 11.8899 13.2999 10.1502 13.2999C8.41049 13.2999 7.0002 11.8896 7.0002 10.1499C7.0002 8.41019 8.41049 6.9999 10.1502 6.9999C11.8899 6.9999 13.3002 8.41019 13.3002 10.1499ZM11.6995 9.84393L9.62016 8.68879C9.38692 8.55915 9.1002 8.72785 9.1002 8.99476V11.305C9.1002 11.572 9.38692 11.7407 9.62016 11.611L11.6995 10.4559C11.9395 10.3225 11.9395 9.97728 11.6995 9.84393Z" fill="#20335B"/>
</svg>
