<svg width="48" height="48" viewBox="0 0 48 48" fill="none" xmlns="http://www.w3.org/2000/svg">
<rect width="48" height="48" rx="24" fill="#3683FC" fill-opacity="0.1"/>
<path fill-rule="evenodd" clip-rule="evenodd" d="M23.9992 7.8002C20.5751 7.8002 17.7992 10.576 17.7992 14.0002C17.7992 17.4244 20.5751 20.2002 23.9992 20.2002C27.4234 20.2002 30.1992 17.4244 30.1992 14.0002C30.1992 10.576 27.4234 7.8002 23.9992 7.8002ZM14.1992 14.0002C14.1992 8.5878 18.5868 4.2002 23.9992 4.2002C29.4116 4.2002 33.7992 8.5878 33.7992 14.0002C33.7992 19.4126 29.4116 23.8002 23.9992 23.8002C18.5868 23.8002 14.1992 19.4126 14.1992 14.0002Z" fill="#3683FC" fill-opacity="0.3"/>
<path fill-rule="evenodd" clip-rule="evenodd" d="M12.8358 31.9059C16.0431 29.5004 19.9673 28.2002 23.9996 28.2002C28.032 28.2002 31.9561 29.5004 35.1634 31.9059C37.8854 33.9474 39.9634 36.6896 41.1724 39.8154C41.531 40.7426 40.9584 41.7374 39.9996 42.0002C39.0409 42.263 38.061 41.6927 37.6786 40.7751C36.6983 38.423 35.0909 36.3515 33.0034 34.7859C30.4249 32.852 27.2601 31.8002 23.9996 31.8002C20.7392 31.8002 17.5743 32.852 14.9958 34.7859C12.9084 36.3515 11.3009 38.423 10.3207 40.7751C9.93822 41.6927 8.95836 42.263 7.99962 42.0002C7.04088 41.7374 6.4682 40.7426 6.82683 39.8154C8.03589 36.6896 10.1138 33.9474 12.8358 31.9059Z" fill="#3683FC" fill-opacity="0.3"/>
</svg>
