<svg width="24" height="24" viewBox="0 0 24 24" fill="none" xmlns="http://www.w3.org/2000/svg">
<path d="M11.5 1.5C17.0228 1.5 21.5 5.97715 21.5 11.5C21.5 11.7628 21.4899 12.0232 21.47 12.2809C21.0319 11.8658 20.5361 11.5111 19.9958 11.23C19.8532 6.66054 16.1041 3 11.5 3C6.80558 3 3 6.80558 3 11.5C3 12.9696 3.37277 14.3834 4.07303 15.6375L4.22368 15.9072L3.11096 19.8914L7.09755 18.7792L7.36709 18.9295C8.54305 19.5852 9.8592 19.9531 11.23 19.9958C11.5111 20.5361 11.8658 21.0319 12.2809 21.47C12.0232 21.4899 11.7628 21.5 11.5 21.5C9.8817 21.5 8.31782 21.1146 6.91286 20.388L3.08704 21.4553C2.42212 21.641 1.73258 21.2525 1.54691 20.5876C1.48546 20.3676 1.48549 20.1349 1.54695 19.9151L2.61461 16.0922C1.88637 14.686 1.5 13.1203 1.5 11.5C1.5 5.97715 5.97715 1.5 11.5 1.5ZM22.5 17C22.5 13.9624 20.0376 11.5 17 11.5C13.9624 11.5 11.5 13.9624 11.5 17C11.5 20.0376 13.9624 22.5 17 22.5C20.0376 22.5 22.5 20.0376 22.5 17ZM17.5006 17.5L17.5011 20.0035C17.5011 20.2797 17.2773 20.5035 17.0011 20.5035C16.725 20.5035 16.5011 20.2797 16.5011 20.0035L16.5006 17.5H13.9956C13.7197 17.5 13.4961 17.2762 13.4961 17C13.4961 16.7239 13.7197 16.5 13.9956 16.5H16.5005L16.5 13.9993C16.5 13.7231 16.7239 13.4993 17 13.4993C17.2761 13.4993 17.5 13.7231 17.5 13.9993L17.5005 16.5H19.9966C20.2725 16.5 20.4961 16.7239 20.4961 17C20.4961 17.2762 20.2725 17.5 19.9966 17.5H17.5006Z" fill="#22DB6C"/>
<path d="M17.5006 17.5L17.5011 20.0035C17.5011 20.2797 17.2773 20.5035 17.0011 20.5035C16.725 20.5035 16.5011 20.2797 16.5011 20.0035L16.5006 17.5H13.9956C13.7197 17.5 13.4961 17.2762 13.4961 17C13.4961 16.7239 13.7197 16.5 13.9956 16.5H16.5005L16.5 13.9993C16.5 13.7231 16.7239 13.4993 17 13.4993C17.2761 13.4993 17.5 13.7231 17.5 13.9993L17.5005 16.5H19.9966C20.2725 16.5 20.4961 16.7239 20.4961 17C20.4961 17.2762 20.2725 17.5 19.9966 17.5H17.5006Z" fill="#22DB6C"/>
</svg>
