<svg width="25" height="24" viewBox="0 0 25 24" fill="none" xmlns="http://www.w3.org/2000/svg">
<path d="M6.09076 11.9997L2.59583 3.2715C2.3526 2.66403 2.9625 2.08309 3.56583 2.28959L3.66092 2.32885L22.1946 11.3288C22.7282 11.588 22.7616 12.2975 22.2946 12.6129L22.1946 12.6705L3.66092 21.6705C3.06066 21.962 2.40857 21.426 2.5644 20.8234L2.59583 20.7278L6.09076 11.9997L2.59583 3.2715L6.09076 11.9997ZM4.76095 4.54007L7.44729 11.2491L14.2714 11.2497C14.6624 11.2497 14.9855 11.5318 15.0365 11.8979L15.0436 11.9997C15.0436 12.3794 14.7531 12.6932 14.3761 12.7428L14.2714 12.7497L7.44729 12.7491L4.76095 19.4593L20.1225 11.9997L4.76095 4.54007Z" fill="#3683FC"/>
</svg>
